<svg xmlns="http://www.w3.org/2000/svg" xmlns:xlink="http://www.w3.org/1999/xlink" viewBox="0 0 920.86 714.93"><defs><style>.cls-1,.cls-11,.cls-14,.cls-6{fill:none;}.cls-2{fill:#272525;}.cls-3{isolation:isolate;}.cls-4{clip-path:url(#clip-path);}.cls-5{fill:#060000;}.cls-6{stroke:#060000;}.cls-11,.cls-14,.cls-6{stroke-miterlimit:10;}.cls-11,.cls-6{stroke-width:2px;}.cls-7{fill:#dbdbdb;}.cls-10,.cls-13,.cls-14,.cls-7{mix-blend-mode:multiply;}.cls-8{fill:url(#_6_dpi_20_);}.cls-9{fill:url(#_6_dpi_20_3);}.cls-10{fill:#f4f4f4;}.cls-11,.cls-14{stroke:#ccc;}.cls-12{fill:#3f3f3f;}.cls-13{fill:#e2e2e2;}.cls-14{stroke-width:19px;}</style><clipPath id="clip-path" transform="translate(86.61 60.08)"><rect class="cls-1" width="750" height="500"/></clipPath><pattern id="_6_dpi_20_" data-name="6 dpi 20%" width="48" height="48" patternTransform="translate(152.77 40.14) scale(0.98)" patternUnits="userSpaceOnUse" viewBox="0 0 48 48"><rect class="cls-1" width="48" height="48"/><path class="cls-2" d="M24,50.4A2.4,2.4,0,1,0,21.6,48,2.4,2.4,0,0,0,24,50.4Z"/><path class="cls-2" d="M48,50.4A2.4,2.4,0,1,0,45.6,48,2.4,2.4,0,0,0,48,50.4Z"/><path class="cls-2" d="M24,26.4A2.4,2.4,0,1,0,21.6,24,2.4,2.4,0,0,0,24,26.4Z"/><path class="cls-2" d="M48,26.4A2.4,2.4,0,1,0,45.6,24,2.4,2.4,0,0,0,48,26.4Z"/><path class="cls-2" d="M36,38.4A2.4,2.4,0,1,0,33.6,36,2.4,2.4,0,0,0,36,38.4Z"/><path class="cls-2" d="M12,38.4A2.4,2.4,0,1,0,9.6,36,2.4,2.4,0,0,0,12,38.4Z"/><path class="cls-2" d="M36,14.4A2.4,2.4,0,1,0,33.6,12,2.4,2.4,0,0,0,36,14.4Z"/><path class="cls-2" d="M12,14.4A2.4,2.4,0,1,0,9.6,12,2.4,2.4,0,0,0,12,14.4Z"/><path class="cls-2" d="M0,50.4A2.4,2.4,0,0,0,2.4,48,2.41,2.41,0,0,0,0,45.6,2.4,2.4,0,0,0-2.4,48,2.39,2.39,0,0,0,0,50.4Z"/><path class="cls-2" d="M0,26.4A2.4,2.4,0,0,0,2.4,24,2.41,2.41,0,0,0,0,21.6,2.4,2.4,0,0,0-2.4,24,2.39,2.39,0,0,0,0,26.4Z"/><path class="cls-2" d="M24,2.4A2.4,2.4,0,0,0,26.4,0,2.41,2.41,0,0,0,24-2.4,2.4,2.4,0,0,0,21.6,0,2.39,2.39,0,0,0,24,2.4Z"/><path class="cls-2" d="M48,2.4A2.4,2.4,0,0,0,50.4,0,2.41,2.41,0,0,0,48-2.4,2.4,2.4,0,0,0,45.6,0,2.39,2.39,0,0,0,48,2.4Z"/><path class="cls-2" d="M0,2.4A2.4,2.4,0,0,0,2.4,0,2.41,2.41,0,0,0,0-2.4,2.4,2.4,0,0,0-2.4,0,2.39,2.39,0,0,0,0,2.4Z"/></pattern><pattern id="_6_dpi_20_3" data-name="6 dpi 20%" width="48" height="48" patternTransform="translate(52.39 -73.87) rotate(-61.94) scale(0.98)" patternUnits="userSpaceOnUse" viewBox="0 0 48 48"><rect class="cls-1" width="48" height="48"/><path class="cls-2" d="M24,50.4A2.4,2.4,0,1,0,21.6,48,2.4,2.4,0,0,0,24,50.4Z"/><path class="cls-2" d="M48,50.4A2.4,2.4,0,1,0,45.6,48,2.4,2.4,0,0,0,48,50.4Z"/><path class="cls-2" d="M24,26.4A2.4,2.4,0,1,0,21.6,24,2.4,2.4,0,0,0,24,26.4Z"/><path class="cls-2" d="M48,26.4A2.4,2.4,0,1,0,45.6,24,2.4,2.4,0,0,0,48,26.4Z"/><path class="cls-2" d="M36,38.4A2.4,2.4,0,1,0,33.6,36,2.4,2.4,0,0,0,36,38.4Z"/><path class="cls-2" d="M12,38.4A2.4,2.4,0,1,0,9.6,36,2.4,2.4,0,0,0,12,38.4Z"/><path class="cls-2" d="M36,14.4A2.4,2.4,0,1,0,33.6,12,2.4,2.4,0,0,0,36,14.4Z"/><path class="cls-2" d="M12,14.4A2.4,2.4,0,1,0,9.6,12,2.4,2.4,0,0,0,12,14.4Z"/><path class="cls-2" d="M0,50.4A2.4,2.4,0,0,0,2.4,48,2.41,2.41,0,0,0,0,45.6,2.4,2.4,0,0,0-2.4,48,2.39,2.39,0,0,0,0,50.4Z"/><path class="cls-2" d="M0,26.4A2.4,2.4,0,0,0,2.4,24,2.41,2.41,0,0,0,0,21.6,2.4,2.4,0,0,0-2.4,24,2.39,2.39,0,0,0,0,26.4Z"/><path class="cls-2" d="M24,2.4A2.4,2.4,0,0,0,26.4,0,2.41,2.41,0,0,0,24-2.4,2.4,2.4,0,0,0,21.6,0,2.39,2.39,0,0,0,24,2.4Z"/><path class="cls-2" d="M48,2.4A2.4,2.4,0,0,0,50.4,0,2.41,2.41,0,0,0,48-2.4,2.4,2.4,0,0,0,45.6,0,2.39,2.39,0,0,0,48,2.4Z"/><path class="cls-2" d="M0,2.4A2.4,2.4,0,0,0,2.4,0,2.41,2.41,0,0,0,0-2.4,2.4,2.4,0,0,0-2.4,0,2.39,2.39,0,0,0,0,2.4Z"/></pattern></defs><g class="cls-3"><g id="레이어_2" data-name="레이어 2"><g id="OBJECTS"><g class="cls-4"><path class="cls-5" d="M519.77,413a2.09,2.09,0,1,1,2.09-2.08A2.08,2.08,0,0,1,519.77,413Z" transform="translate(86.61 60.08)"/><path class="cls-5" d="M519.77,430.92a2.09,2.09,0,1,1,2.09-2.09A2.08,2.08,0,0,1,519.77,430.92Z" transform="translate(86.61 60.08)"/><path class="cls-5" d="M519.77,448.88a2.09,2.09,0,1,1,2.09-2.09A2.09,2.09,0,0,1,519.77,448.88Z" transform="translate(86.61 60.08)"/><path class="cls-5" d="M519.77,466.83a2.09,2.09,0,1,1,2.09-2.09A2.08,2.08,0,0,1,519.77,466.83Z" transform="translate(86.61 60.08)"/><path class="cls-5" d="M519.77,484.3a2.09,2.09,0,1,1,2.09-2.09A2.09,2.09,0,0,1,519.77,484.3Z" transform="translate(86.61 60.08)"/><path class="cls-5" d="M519.77,502.26a2.09,2.09,0,1,1,2.09-2.09A2.09,2.09,0,0,1,519.77,502.26Z" transform="translate(86.61 60.08)"/><path class="cls-5" d="M519.77,520.21a2.09,2.09,0,1,1,2.09-2.09A2.08,2.08,0,0,1,519.77,520.21Z" transform="translate(86.61 60.08)"/><path class="cls-5" d="M519.77,538.17a2.09,2.09,0,1,1,2.09-2.09A2.09,2.09,0,0,1,519.77,538.17Z" transform="translate(86.61 60.08)"/><path class="cls-5" d="M498.77,413a2.09,2.09,0,1,1,2.09-2.08A2.08,2.08,0,0,1,498.77,413Z" transform="translate(86.61 60.08)"/><path class="cls-5" d="M498.77,430.92a2.09,2.09,0,1,1,2.09-2.09A2.08,2.08,0,0,1,498.77,430.92Z" transform="translate(86.61 60.08)"/><path class="cls-5" d="M498.77,448.88a2.09,2.09,0,1,1,2.09-2.09A2.09,2.09,0,0,1,498.77,448.88Z" transform="translate(86.61 60.08)"/><path class="cls-5" d="M498.77,466.83a2.09,2.09,0,1,1,2.09-2.09A2.08,2.08,0,0,1,498.77,466.83Z" transform="translate(86.61 60.08)"/><path class="cls-5" d="M498.77,484.3a2.09,2.09,0,1,1,2.09-2.09A2.09,2.09,0,0,1,498.77,484.3Z" transform="translate(86.61 60.08)"/><path class="cls-5" d="M498.77,502.26a2.09,2.09,0,1,1,2.09-2.09A2.09,2.09,0,0,1,498.77,502.26Z" transform="translate(86.61 60.08)"/><path class="cls-5" d="M498.77,520.21a2.09,2.09,0,1,1,2.09-2.09A2.08,2.08,0,0,1,498.77,520.21Z" transform="translate(86.61 60.08)"/><path class="cls-5" d="M498.77,538.17a2.09,2.09,0,1,1,2.09-2.09A2.09,2.09,0,0,1,498.77,538.17Z" transform="translate(86.61 60.08)"/><polyline class="cls-6" points="647.04 393.61 657.13 405.61 667.23 393.61 677.33 405.61 687.42 393.61 697.52 405.61 707.61 393.61 717.71 405.61 727.81 393.61 737.91 405.61 748.02 393.61"/><polyline class="cls-6" points="647.04 409.55 657.13 421.55 667.23 409.55 677.33 421.55 687.42 409.55 697.52 421.55 707.61 409.55 717.71 421.55 727.81 409.55 737.91 421.55 748.02 409.55"/><path class="cls-5" d="M-9.84,54.86a3.52,3.52,0,0,1-3.52,3.51,3.51,3.51,0,0,1-3.51-3.51,3.52,3.52,0,0,1,3.51-3.52A3.53,3.53,0,0,1-9.84,54.86Z" transform="translate(86.61 60.08)"/><path class="cls-5" d="M20.34,54.86a3.51,3.51,0,1,1-3.51-3.52A3.51,3.51,0,0,1,20.34,54.86Z" transform="translate(86.61 60.08)"/><path class="cls-5" d="M50.53,54.86A3.52,3.52,0,1,1,47,51.34,3.52,3.52,0,0,1,50.53,54.86Z" transform="translate(86.61 60.08)"/><path class="cls-5" d="M80.71,54.86a3.51,3.51,0,1,1-3.51-3.52A3.51,3.51,0,0,1,80.71,54.86Z" transform="translate(86.61 60.08)"/><path class="cls-5" d="M-9.84,83.48A3.53,3.53,0,0,1-13.36,87a3.52,3.52,0,0,1-3.51-3.52A3.51,3.51,0,0,1-13.36,80,3.52,3.52,0,0,1-9.84,83.48Z" transform="translate(86.61 60.08)"/><path class="cls-5" d="M20.34,83.48A3.51,3.51,0,1,1,16.83,80,3.52,3.52,0,0,1,20.34,83.48Z" transform="translate(86.61 60.08)"/><path class="cls-5" d="M50.53,83.48A3.52,3.52,0,1,1,47,80,3.53,3.53,0,0,1,50.53,83.48Z" transform="translate(86.61 60.08)"/><path class="cls-5" d="M80.71,83.48A3.51,3.51,0,1,1,77.2,80,3.52,3.52,0,0,1,80.71,83.48Z" transform="translate(86.61 60.08)"/><path class="cls-5" d="M-9.84,112.11a3.52,3.52,0,0,1-3.52,3.51,3.51,3.51,0,0,1-3.51-3.51,3.51,3.51,0,0,1,3.51-3.51A3.52,3.52,0,0,1-9.84,112.11Z" transform="translate(86.61 60.08)"/><path class="cls-5" d="M20.34,112.11a3.51,3.51,0,1,1-3.51-3.51A3.51,3.51,0,0,1,20.34,112.11Z" transform="translate(86.61 60.08)"/><path class="cls-5" d="M50.53,112.11A3.52,3.52,0,1,1,47,108.6,3.52,3.52,0,0,1,50.53,112.11Z" transform="translate(86.61 60.08)"/><path class="cls-5" d="M80.71,112.11a3.51,3.51,0,1,1-3.51-3.51A3.51,3.51,0,0,1,80.71,112.11Z" transform="translate(86.61 60.08)"/><path class="cls-5" d="M-9.84,140.74a3.52,3.52,0,0,1-3.52,3.51,3.51,3.51,0,0,1-3.51-3.51,3.52,3.52,0,0,1,3.51-3.52A3.53,3.53,0,0,1-9.84,140.74Z" transform="translate(86.61 60.08)"/><path class="cls-5" d="M20.34,140.74a3.51,3.51,0,1,1-3.51-3.52A3.51,3.51,0,0,1,20.34,140.74Z" transform="translate(86.61 60.08)"/><path class="cls-5" d="M50.53,140.74A3.52,3.52,0,1,1,47,137.22,3.52,3.52,0,0,1,50.53,140.74Z" transform="translate(86.61 60.08)"/><path class="cls-5" d="M80.71,140.74a3.51,3.51,0,1,1-3.51-3.52A3.51,3.51,0,0,1,80.71,140.74Z" transform="translate(86.61 60.08)"/><path class="cls-5" d="M-9.84-56.57a3.52,3.52,0,0,1-3.52,3.51,3.51,3.51,0,0,1-3.51-3.51,3.51,3.51,0,0,1,3.51-3.51A3.52,3.52,0,0,1-9.84-56.57Z" transform="translate(86.61 60.08)"/><path class="cls-5" d="M20.34-56.57a3.51,3.51,0,0,1-3.51,3.51,3.51,3.51,0,0,1-3.51-3.51,3.51,3.51,0,0,1,3.51-3.51A3.51,3.51,0,0,1,20.34-56.57Z" transform="translate(86.61 60.08)"/><path class="cls-5" d="M50.53-56.57A3.52,3.52,0,0,1,47-53.06a3.51,3.51,0,0,1-3.51-3.51A3.51,3.51,0,0,1,47-60.08,3.52,3.52,0,0,1,50.53-56.57Z" transform="translate(86.61 60.08)"/><path class="cls-5" d="M80.71-56.57a3.51,3.51,0,0,1-3.51,3.51,3.51,3.51,0,0,1-3.51-3.51,3.51,3.51,0,0,1,3.51-3.51A3.51,3.51,0,0,1,80.71-56.57Z" transform="translate(86.61 60.08)"/><path class="cls-5" d="M-9.84-27.94a3.52,3.52,0,0,1-3.52,3.51,3.51,3.51,0,0,1-3.51-3.51,3.52,3.52,0,0,1,3.51-3.52A3.53,3.53,0,0,1-9.84-27.94Z" transform="translate(86.61 60.08)"/><path class="cls-5" d="M20.34-27.94a3.51,3.51,0,0,1-3.51,3.51,3.51,3.51,0,0,1-3.51-3.51,3.52,3.52,0,0,1,3.51-3.52A3.52,3.52,0,0,1,20.34-27.94Z" transform="translate(86.61 60.08)"/><path class="cls-5" d="M50.53-27.94A3.52,3.52,0,0,1,47-24.43a3.51,3.51,0,0,1-3.51-3.51A3.52,3.52,0,0,1,47-31.46,3.53,3.53,0,0,1,50.53-27.94Z" transform="translate(86.61 60.08)"/><path class="cls-5" d="M80.71-27.94a3.51,3.51,0,0,1-3.51,3.51,3.51,3.51,0,0,1-3.51-3.51,3.52,3.52,0,0,1,3.51-3.52A3.52,3.52,0,0,1,80.71-27.94Z" transform="translate(86.61 60.08)"/><path class="cls-5" d="M-9.84.68a3.52,3.52,0,0,1-3.52,3.51A3.51,3.51,0,0,1-16.87.68a3.51,3.51,0,0,1,3.51-3.51A3.52,3.52,0,0,1-9.84.68Z" transform="translate(86.61 60.08)"/><path class="cls-5" d="M20.34.68a3.51,3.51,0,1,1-3.51-3.51A3.51,3.51,0,0,1,20.34.68Z" transform="translate(86.61 60.08)"/><path class="cls-5" d="M50.53.68A3.52,3.52,0,0,1,47,4.19,3.51,3.51,0,1,1,50.53.68Z" transform="translate(86.61 60.08)"/><path class="cls-5" d="M80.71.68A3.51,3.51,0,1,1,77.2-2.83,3.51,3.51,0,0,1,80.71.68Z" transform="translate(86.61 60.08)"/><path class="cls-5" d="M-9.84,29.31a3.52,3.52,0,0,1-3.52,3.51,3.51,3.51,0,0,1-3.51-3.51,3.51,3.51,0,0,1,3.51-3.51A3.52,3.52,0,0,1-9.84,29.31Z" transform="translate(86.61 60.08)"/><path class="cls-5" d="M20.34,29.31a3.51,3.51,0,1,1-3.51-3.51A3.51,3.51,0,0,1,20.34,29.31Z" transform="translate(86.61 60.08)"/><path class="cls-5" d="M50.53,29.31A3.52,3.52,0,1,1,47,25.8,3.52,3.52,0,0,1,50.53,29.31Z" transform="translate(86.61 60.08)"/><path class="cls-5" d="M80.71,29.31A3.51,3.51,0,1,1,77.2,25.8,3.51,3.51,0,0,1,80.71,29.31Z" transform="translate(86.61 60.08)"/><circle class="cls-7" cx="90.87" cy="146.25" r="54.75" transform="translate(9.81 167.17) rotate(-45)"/><circle class="cls-8" cx="700.19" cy="48.2" r="108.09" transform="translate(257.61 569.31) rotate(-45)"/><circle class="cls-9" cx="74.37" cy="546.74" r="108.09" transform="translate(-278.21 272.81) rotate(-45)"/><rect class="cls-10" y="429.3" width="129.21" height="173.57"/><circle class="cls-11" cx="810.16" cy="569.51" r="81.52"/><circle class="cls-11" cx="723.55" cy="509.42" r="109.7" transform="translate(-52.87 374.03) rotate(-22.39)"/><path class="cls-11" d="M723.55,605a95.61,95.61,0,1,1,95.61-95.61A95.72,95.72,0,0,1,723.55,605Z" transform="translate(86.61 60.08)"/><circle class="cls-11" cx="810.16" cy="569.51" r="81.52"/><circle class="cls-11" cx="810.16" cy="569.51" r="66.4"/><circle class="cls-11" cx="810.16" cy="569.51" r="52.55"/><circle class="cls-12" cx="713.54" cy="503.78" r="28.42"/><rect class="cls-12" x="56.18" y="290.98" width="65.86" height="9.67"/><rect class="cls-12" x="132.04" y="290.98" width="10.57" height="9.67"/><rect class="cls-10" x="807.43" y="346.69" width="76.14" height="10.21"/><rect class="cls-10" x="770.71" y="346.69" width="21.47" height="10.21"/><rect class="cls-10" x="211.57" y="447.4" width="21.47" height="21.47"/><rect class="cls-13" x="780.32" y="60.08" width="84.86" height="47.04"/><circle class="cls-14" cx="407.71" cy="512.03" r="43.94" transform="translate(-61.58 226.6) rotate(-19.61)"/></g></g></g></g></svg>