<svg xmlns="http://www.w3.org/2000/svg" viewBox="0 0 1371.97 480.5"><defs><style>.cls-1{fill:#fff;}</style></defs><g id="레이어_2" data-name="레이어 2"><g id="Ñëîé_1" data-name="Ñëîé 1"><path class="cls-1" d="M721.66,356.81c.48.25.93.51,1.29.74-.24-2.4-.49-4.81-.73-7.21Q721.89,353.57,721.66,356.81Z"/><path class="cls-1" d="M777.63,380.23c-.54,2.72-1.07,5.45-1.61,8.18l.21.23c.44-.76.9-1.5,1.36-2.25a1.81,1.81,0,0,1,1.89-.89c-.08-1.05-.17-2.09-.25-3.14l-.85-1.11C778.14,380.94,777.89,380.59,777.63,380.23Z"/><path class="cls-1" d="M777.2,420.19c-3.26,8.85-5.82,18-8.22,27.22.14.91.27,1.82.42,2.73.12.67.25,1.35.38,2a11.7,11.7,0,0,0,2-3.08c1.9-3.57,3.76-7.17,5.68-10.74a3.41,3.41,0,0,1-.27-1.16Z"/><path class="cls-1" d="M803.59,373.45c.52-.54,1-1.11,1.52-1.68-.11-7,1.85-13.46,4.77-19.59-1.85,2.23-4,4.84-6.3,7.54Q803.64,366.59,803.59,373.45Z"/><path class="cls-1" d="M803.31,391.13c0,1.08,0,2.17-.07,3.26,1-1.39,1.92-2.78,2.82-4.22A16,16,0,0,1,803.31,391.13Z"/><path class="cls-1" d="M526.47,319.6c0,4.37.1,8.75.29,13.12a35.64,35.64,0,0,0,3-7.14c.36-1.24,1.64-1.45,3.13-1.21,0-.06,0-.11,0-.16l-.16-.13A72.13,72.13,0,0,1,526.47,319.6Z"/><path class="cls-1" d="M1356.2,472.54c-2-.2-3.66-.06-4.91-.56a104.41,104.41,0,0,1-10.12-4.6c-6.43-3.39-12.48-7.25-19.13-10.37-9.92-4.66-19.66-9.35-27.12-16.4-6-5.66-12.88-10.8-18.43-16.69-3.75-4-8.82-7.25-11.31-11.92-.24-.46-.89-.79-1.37-1.16-4.31-3.32-8.45-6.73-12.4-10.33-7.15-6.51-12.06-13.95-16.74-21.44a245.25,245.25,0,0,1-13.52-25.68c-2.31-4.91-6.45-8.83-10.12-13s-7.89-8.45-11.55-12.82c-4.5-5.36-8.35-11.06-13.1-16.29a96.47,96.47,0,0,1-17-25.73,13.2,13.2,0,0,0-2.61-3.33c-1.59-1.7-3.26-3.36-5-5-3.16-2.91-6.26-5.88-9.65-8.62-3.63-2.93-7.8-5.5-9.42-9.57a2.23,2.23,0,0,0-.8-1c-5.35-3.58-8.54-8.31-11.82-13s-4.76-10.1-10-14c-.67-.49-.76-1.41-1.19-2.11-1.43-2.34-3.86-3.47-7.25-3.69-3.22-.2-4.31,1.34-5.69,3.14-2.41,3.15-5.28,6.09-8,9.11-6.52,7.32-14.07,14.1-19.15,22.16a70,70,0,0,1-8.66,11.52,101,101,0,0,0-14.35,19.39A149.17,149.17,0,0,1,1030,322.48c-6.35,6-13,9.89-18.73,14.9-1.76-1.64-2.37-3.8-2.65-7.22-.6-7.21,0-18.17-6.12-23.19a6.58,6.58,0,0,0-3.19-1,40.2,40.2,0,0,0-4.53-.09,13.43,13.43,0,0,1-10-4.06,43.21,43.21,0,0,1-9.55-13.88c-.68-1.62-1.75-2.08-3.67-2.27-3.46-.36-5.38,1.38-7,3.37-3.06,3.73-5.94,7.57-8.79,11.42-1.15,1.53-2,3.24-5,4-2.94-3.74-5.88-7.5-8.85-11.24-.92-1.16-1.87-2.31-2.89-3.41-1.38-1.48-2.82-2.92-4.22-4.38-1-5.78-2.12-11.47-7-16.35a8,8,0,0,1-1.29-2.12c-2.66-5.17-4.78-10.55-8.08-15.47s-6.8-9.95-11.62-14.34c.09-.12.16-.24.24-.36,2.92-4,2.36-11.86-5.32-15.52a49.79,49.79,0,0,1-6.06-3.06,29.9,29.9,0,0,0-7.06-2.86c-.71-.91-1.41-1.82-2-2.77-.75-1.17-1.46-2.37-2.14-3.58a20.13,20.13,0,0,0,.77-3.42c.8-5.31-1.16-10.91-8-12.61l-.91-.24a27.77,27.77,0,0,0-4-5.08c-1.72-1.72-2.68-3.88-4.13-5.77-4.78-6.21-14.38-15.18-19.26-21.34-1.77-2.23-4-4.26-5.66-6.52a74.44,74.44,0,0,0-18.71-17.4c-1.34-.89-2.5-2.09-4.12-2.48-1.6-2.95-3.27-5.89-5.31-9.56a6.17,6.17,0,0,0-5.19-3.45,3.87,3.87,0,0,0-.92.58c-5.27,6.73-8,13.4-13.21,20.16a8.67,8.67,0,0,0-1.14,2.35c-2.14,6-12.29,14.57-16.79,16.77-3.09,1.51-4,3.68-3.43,6.47.22,1.11.47,2.23.8,3.33a13.56,13.56,0,0,1-1.73,11.95c-2.05,3.08-3.83,6.46-6.66,9a11.62,11.62,0,0,0-3.8,6.07c-5.13,4.37-10.72,8.44-15.84,12.82-8.28,7.09-13.81,15.57-19.14,24C721.5,245,723.72,252,718.12,259.7c0-3.43-.34-6.29-1.44-7.73-3.51-4.63-8.27-1.81-12.16-6.22s-8.33-8.9-12.36-13.44c-1.06-1.18-2.18-2.71-2.22-4.1-.17-5.35,0-10.71.2-16.07.15-4.42.28-8.81-2.13-12.91-3.64-6.2-7.63-12.2-14.08-16.71a9,9,0,0,1-2.47-2.12c-3.26-4.94-6.59-9.85-9.51-14.93-3.1-5.4-6.57-10.5-12-14.5-2-1.45-4.34-1.66-5.85-.39a35.34,35.34,0,0,0-5.27,5.08c-2.55,3.32-4.82,6.79-7,10.28a8.74,8.74,0,0,1-8.08,4.21c-2.86,0-4.83-7.28-7.69-7.18a6.9,6.9,0,0,1-5.59-2.46c-1.78-2-3.12-4.31-4.85-6.37-5.2-6.21-25.44-17.73-25.9-18.61-1-1.91-1.68-4.16-3.32-5.57-2.18-1.88-10.17-14.81-10.32-17.92a9.32,9.32,0,0,0-1.64-5.13c-3.22-4.14-14.67-6.16-16-11.11-.23-.81-1.31-1.46-2-2.2l-6.26,3.54c-1.51-2.14-2.85-3.75-3.85-5.51-1.94-3.44-3.5-7-5.58-10.41a30.14,30.14,0,0,0-4.93-5.85,5.31,5.31,0,0,0-6.35-1.06A16.33,16.33,0,0,1,517,75c-2.22-2-2.73-4.59-3.73-7-1.76-4.13-3.23-8.37-5.39-12.34s-5.16-7.59-7.56-11.47c-2.95-4.77-9.18-11.36-12.63-15.84-5.5-7.16-7.12-9.22-12.56-14.74-3.89-3.95-8.21-8.75-9.78-13.68-1.53.9-3,1.81-3.29,2.94-.92,3.48-3.44,6.07-5.82,8.83-3.55,4.11-7.64,10.54-10.47,13.86-5,5.85-5.08,13-10.33,18.71-1.82,2-4,3.7-6.51,6-1.79-1.94-3.29-3.4-4.57-5-2.35-2.93-19.36,18.81-21.91,16-3.56-3.9-7.34-7.69-13.54-9.89-.92,1.79-1.81,3.4-2.56,5.06S379.24,70,373,80.28c-4.52,7.43-8.93,14.92-13.47,22.35-2.2,3.6-5.11,6.94-9.51,8.54-6,2.18-8.06,6-8.42,11-.11,1.56,0,3.12-.11,4.68-.13,1.85-1.06,3.06-3.4,3.7a38.37,38.37,0,0,0-8.22,3.17c-2.17,1.19-4.79,2.73-5.61,4.61-3.39,7.78-9.87,13.37-16.87,18.78a130.8,130.8,0,0,0-11.47,10.12c-4.06,4-7.71,8.24-11.64,12.31-6.79,7-13.67,14-20.47,21a28.67,28.67,0,0,0-2.17,2.86c-2.23-1.06-3.49-1.45-4.56-2.08-3.73-2.17-7.41-4.41-11.08-6.66-3.13-1.93-6.91-1.87-8.8.79-4.38,6.19-12.89,9-17.06,15.32,0,.08-.3.08-1,.23-1.56-2.11-3.2-4.38-4.9-6.62-2.62-3.45-4.64-7.48-8.13-10.14-2.86-2.19-6.2-4-9.06-6.38a3.76,3.76,0,0,0-5.83,1c-.86,1.35-1.21,2.93-2,4.34-6.27,11.45-12.38,23-19,34.29C163.51,239.14,156,250.41,152.17,263c-.5,1.64-1.78,2.38-3.7,2.26-5.51-.34-8.22,2.37-10.05,6.28-3.51,7.53-7.22,15-10.67,22.53-1,2.11-2.17,3.21-5.06,3.3-4.94.16-8.62,2.08-10,6.37-.55,1.64-1.18,3.26-1.85,4.86-1.54,3.71-3.14,7.41-4.66,11a30.56,30.56,0,0,0-4.13,0c-2.94.4-6.13.38-8.14,2.77s-4.2,4.49-5.75,7c-7.51,12.06-17.55,22.84-24.79,35a18.38,18.38,0,0,1-1.69,2.11c-5.64,6.88-11,13.94-17,20.56a95.42,95.42,0,0,1-13.2,11.54c-4,3-8.44,5.59-11.32,9.57a18.21,18.21,0,0,1-4.15,4.26c-6,4.26-9.95,9.91-14.31,15.26A9,9,0,0,0,0,432.06c-.22,1.56,1.43,2.3,3,1.44.8-.42,21.66-13.83,25.7-16.09s19.92-19.65,36-19c4.53.2,9.52-17,12.24-19.57,5.89-5.6,12.15-10.92,18.31-16.33.27-.24.94-.18,1.84-.32,2.09,3.11,4.58,6.15,6.24,9.49s2.61,7.11,3.91,10.83c2.71-.89,3.45-2.39,3.32-4.21a35.42,35.42,0,0,0-.84-6.32,63.31,63.31,0,0,1-1.7-24.49c.28-2.05,1-3.41,3.67-3.9a16.17,16.17,0,0,0,5.47-2.05,79.21,79.21,0,0,0,19.58-17A39.11,39.11,0,0,0,145,307.2c.58-2.86,1.08-5.83,3.95-8.11,6.18,4.49,7.46,11.75,13.38,16.19,3.33-2.76,3.55-3,2.67-5.32a59,59,0,0,1-3.76-24.36,51.84,51.84,0,0,0,13.51-11.78c3.76-4.56,6.87-9.5,10.53-14.64.64,1.12,1,1.88,1.49,2.61,2.15,3.35,4.22,6.75,6.57,10a4.54,4.54,0,0,0,3.18,1.42c.66,0,1.6-1.3,1.88-2.14a7.85,7.85,0,0,0,.22-3.38c-.48-4.37-1-8.74-1.63-13.11-1-7.43,6.81-13,5.62-19.81-.4-2.32-2.67-8.41-1.13-10.15,2.25-2.51,7.24,5.53,9.34,7.12,3.45,2.62,9.3,13.15,12.85,10.47,2.73-2.07,5.15-4.43,7.68-6.69,2.74-2.45,5.25-2.87,8.37-.83,2.09,1.37,4.49,3,5.38,5,2.72,5.94,7.51,11.1,8.86,17.55a49.88,49.88,0,0,0,2.79,8.17c2.76,6.91,4,14.29,10.13,20.12,2.32,2.2,2.3,5.16.76,8.34-2,4.15-3,8.68-4.14,13.1s-2.15,9.16-3.12,13.77c-1.95,9.34-3.41,16.72-3.11,18,4.32-.59,13.65-17.12,16.81-26.67,1.42-4.28,1.89-14.79,8.62-15.58.63-.08,2.47-7.94.68-12.34-3.71-9.14-6.13-18.54-8.46-28-1.05-4.29-1.89-8.61-2.92-12.9-1.27-5.28-2.53-10.56-4-15.8-.72-2.56-.06-4.21,2.68-5.72,2.16-1.19,4.54-2.89,5.39-4.82,1.79-4.08,2.71-8.43,3.85-12.7a5.8,5.8,0,0,1,3.18-4.08c6.59-3.38,13.09-6.9,19.6-10.39a11.29,11.29,0,0,0,1.88-1.39c5.51-4.55,11-9.1,16.51-13.68,3.2-2.68,6.28-5.46,9.5-8.11,4.42-3.65,9.57-6.82,13.23-10.94s7.43-3.45,11-.55a57.47,57.47,0,0,1,8.59,9.35c1.86,2.34,6.85,5.12,10.68,10.5-.67-1.64-.88-7.62-1.74-9.22-1.52-2.83-1.83-2.71-3.34-5.54-2.82-5.29-5.26-10.73-8.32-15.91-2.19-3.69-1.85-6.78.39-10.37,4.75-7.64,7.19-15.55,9.75-24,.83-2.75,1.29-8.77,3.58-11a6.33,6.33,0,0,0,1.47-3.49c.66-4.17,5.82-18.23,9.95-20.3.68.44,3.57,14.62,4.05,15,4,3.26,2.78,4.35,6.58,1.14a50.54,50.54,0,0,1,4.37-3c3.52,4.32,7.15,8,9.65,12.06a26.68,26.68,0,0,0,6.73,7c1.55-3.09-3.79-15-4.32-18.26-.87-5.33,2.11-2,.72-8.57-.89-4.18,13.15-11.6,14.86-14.87,2.25-4.3,6-8,8.79-12.14,2.49-3.67,4.64-7.5,6.81-11.32,1.09-1.9,1.8-4,2.9-5.85.48-.82,1.57-2,2.33-2,2.8.1,4.13-14.82,5.74-16,4.36-3.05,9.34-15.71,9.43-15.49.45,1.06,1.49,15.25,1.86,16.34,4.61,13.32,6.54,23,13.61,35.65,4.78,8.59,8.57,17.57,13.12,26.25,3.32,6.35,7.2,12.49,10.77,18.75,1.56,2.73,1.4,3-1.35,5-1.38,1-2.76,2.08-4,3.21-4.25,3.82,1.6,9.28-2.59,13.15-.28.26-22.71,14.27-23.62,15.24-4.15,4.42-5.28,7.91-9.73,12.12A71.57,71.57,0,0,0,452.39,160c6.66-3.44,8.54-5.61,12.06-7.74s9.19-6.8,12.55-9.16c2.69-1.87,4-4.57,6.93-6,5.19-2.53,6.31-2.08,9.56-3,3.49-.93,3.3-1.43,6.68-2.66,2-.73,3.93-1.64,6-2.21,6.32-1.73,12.24-3.88,15.35-9.35.12-.21.55-.3.83-.44,3.33,1.92,5.63,9.18,7.63,13.54a50,50,0,0,0,3.28,6.65c4.67,7.19,9.49,14.32,14.29,21.45,4.23,6.28,8.47,12.56,12.8,18.8,1.33,1.92,3,3.69,4.81,5.94-5.5,5.23-2.92,6.37-11.22,13.19-7,5.73-14.11,11.35-21.25,17-2,1.53-2.5,3.17-.61,4.76s1.54,3.25.36,5c-.75,1.11-1.47,2.23-2.22,3.34-4,5.91-8.08,11.77-12,17.74-2.55,3.92-2.4,4,1.28,7.13a10.27,10.27,0,0,1-.56,1.92c-7.65,15.6-18.31,40-17.83,41.48,4.77-3.81,19.15-25.51,22.43-29.22,4.8-5.41,1.94-9.3,7.21-14.41s9.66-5.86,13.07-12.11a28.08,28.08,0,0,1,3.4-5c1.67-1.81,3.55-6.41,5.37-7.58,1.32-.85,2.7-2.16,4.15-2.27,4.2-.3,6.89-2.67,9.89-4.56,4.66-2.94,9-6.31,13.69-9.15,3.34-2,13-7.3,16.39-8.53a5.24,5.24,0,0,1,5.47.67c4,2.82,12.38,18.73,16,21.86,1.31,1.12,1.19,2.14.68,3.46-2.68,6.83-2.88,13.94-3,21a6.2,6.2,0,0,0,2.21,4c5.26,4.76,10.82,9.29,16.11,14,7.11,6.39,14.19,12.82,21,19.4,4.34,4.17,1.67,15.85,3.61,21.26a55.1,55.1,0,0,0,4,8.72,7.58,7.58,0,0,0,3.68,3.24c5,1.74,10.21,2.91,15.14,4.71a1.81,1.81,0,0,1-.51,2.28,3,3,0,0,1-1.59.56l1.55,2.31c2.59,3.87-2.81,4.11-6.06,2.51l-.61-.31a15.31,15.31,0,0,1,1.12,4.51,46.94,46.94,0,0,1,0,4.89,14.85,14.85,0,0,0,1.73-2.5c1.65-2.42,3.16-4.89,4.95-7.24,1.32-1.74,3-3.33,4.38-5,3.46,1.57,6.48,3.64,7.89,7.26.38,1-4.32,10.57-3.46,11.39a23.66,23.66,0,0,1,2.67,2.5c2.26,3,4.52,6,6.54,9.08a66,66,0,0,1,4.26,7.65c2.32,4.86,4.36,9.81,6.74,14.64a7.64,7.64,0,0,0,3.1,3.1c-1.07-6.23-2.35-11.18-3.74-17.43-.43-1.9,6.63-24.7,3.5-29.29-8.15-12,2.52-20.47,5.89-27.42,3.55-7.33,17.33-5,20.64-12.39s11.21-9.81,14.67-17.33c.54-1.16,1.86-2.07,2.78-3.05,4.14,3.5,7.82,6.59,11.45,9.72a4.56,4.56,0,0,1,1.34,1.78c2.37,6.16,6.21,10.84,10.09,21.31-.15-11.27-.67-18.13-1.74-24.71-1.24-7.72-2.21-15.48-3.74-23.16-1.1-5.55-6.64-13.19-3.71-18.2,3.48-5.95,4.31-10.89,7.49-17,2-3.88,5.72-9,7.4-13s.51-11.24,1.14-15.52c1.32-8.81,7.32-15.24,7.66-24.28a70.2,70.2,0,0,1,.69-7.19c1.15-2.1,2.29-4.2,3.46-6.3,1-1.76,2.05-3.51,3.08-5.26s1-3.87,4.13-4.68c1.75,2.06,3.49,4,5,6,.76,1,1.06,2.2,1.72,3.25a24.6,24.6,0,0,0,3.6,5.17c4.85,4.56,8.56,52.57,11.44,55.63,1.94,2.07,2.84,4.52,1.82,7.06-2.9,7.24-2.68,14.71-2.76,22.14-.1,9.9.15,19.8.22,29.7,0,1.69-.25,3.38-.2,5.07.06,2.41,2.35,3.66,5.12,2.6a25.61,25.61,0,0,0,5.75-3.18c3.57-2.56,7-5.27,10.42-7.92,4.41-3.38,8.8-6.77,13.24-10.12,1.14-.85,2.29-1.7,3.51-2.58q3.44,7.49,6.85,15c-1,7.71-3.51,15.24-6.51,22.68-3.08,7.61-4.25,15.2-2.47,23.15s4.09,16.16,4,24.43c0,4.17-.78,8.33-.81,12.5A41.39,41.39,0,0,1,863.1,379a85.08,85.08,0,0,0-5.78,15.79,26,26,0,0,0,.86,15.43c3.35,9.24,5.56,18.6,3.61,28.22-1.53,7.54-1.4,15.37-6.49,22.33-1.07,1.47,0,2.89,1.66,3.73s3,.19,4.29-1a50.76,50.76,0,0,1,7.61-5.78c6.79-4.11,13.9-7.91,20.68-12,4.58-2.77,7.76-6.8,14-8.1a87.18,87.18,0,0,0,12.26-3.81c3.45-1.27,7.27-2.1,9.42-5.08a7.23,7.23,0,0,1,5.19-2.89,6.3,6.3,0,0,1,.55,1.64c.23,6.94-.43,13.78-3.55,20.39-.64,1.34-2.3,2.84,0,4.21.38-.09.71-.14,1-.24,4.26-1.4,16.35-10.95,19.21-14.93,3-4.22,5.48-8.67,8.46-12.9s6.33-8.31,9.48-12.48c.6-.79,1-1.66,1.54-2.48,2.59-3.91,5.1-7.85,7.83-11.71,2.26-3.19,8.13-5.15,10.61-8.24a101.37,101.37,0,0,1,7.39-8,32.76,32.76,0,0,0,7.81-10.2q4.32,3,8.57,6.13c6.42,4.63,13.48,8.42,20.5,12.35q15.54,8.72,31.93,16.13c7.26,3.29,14.31,6.88,21.42,10.38,3,1.49,5.86,3.29,9,4.61s21.29,12.76,24.44,13.79l.83-.84c-.55-.9-.85-2-1.69-2.66-4.42-3.27-8.8-6.6-13.52-9.54a88.26,88.26,0,0,1-11.43-8.29c-4.78-4.15-8.88-8.91-14.94-12-5.09-2.57-8.95-6.38-12.93-10-5.25-4.79-10.11-9.91-15.67-14.43-8.66-7-13.5-15.68-16.66-25.24a15.57,15.57,0,0,0-3.27-5.18,19.58,19.58,0,0,0-8-5c2.46-2.5,5.61-4.26,8.38-7.62,2.08-2.53,8.28-5.36,10.16-8a65.9,65.9,0,0,1,5.3-6.85c4.16-3.75,6.26-9.29,10.57-12.88,4.53-3.76,2.5-6.83,6.13-11.1,1.2-1.42,3.77-2.57,4-4,.45-3.3,3.66-5.19,5.43-7.77,4.43-6.46,10.28-12.19,15.76-18.11a80.23,80.23,0,0,1,6.27-5.48c3.24,2.71,6,5,8.68,7.3a3.89,3.89,0,0,1,1,1.77c.94,3,1.8,6.11,2.72,9.15,2.35,7.81,4.34,15.74,12.89,21.37a4,4,0,0,1,.61.63c4.43,4.41,5.81,10.34,12,13.89.32.18.26.73.46,1.09,2.33,4.18,4.35,8.49,9.66,11.23,2.36,1.22,3.76,3.17,3.72,5.34-.11,5.72.22,11.51-1,17.11a85.72,85.72,0,0,0-2.06,17.1,44.34,44.34,0,0,0,.85,5.41c.61,4.79,2.1,9.65,1.52,14.36a163.76,163.76,0,0,0-1.59,19.5c0,3.25-.56,6.5-.78,9.74a2.28,2.28,0,0,0,2.51,2.5,4.3,4.3,0,0,0,3-1.59c4.57-7.69,9.22-15.36,12.23-23.53.9-2.42,1.56-5.07,5.06-6.87,1,1.29,1.92,2.36,2.76,3.45a41.86,41.86,0,0,0,11.77,10.25,33.71,33.71,0,0,1,11.15,10c.86,1.31,1.85,2.58,4.26,2.07,5.87-7.25,7.25-8.41,10.94-9.33,3.18,6.19,6.46,12.34,9.49,18.56a81.88,81.88,0,0,0,13,19.88c2.84,3.12,5.12,6.71,4.15,10.94-.69,3,1.55,4.62,5.56,4.56a44.71,44.71,0,0,0,7.16-.31c12.75-2.28,25.28-.25,37.66,1.47,10.14,1.41,40.06,20.15,50.4,19.87,6.75-.18,13.65-.4,20.25,1.66,2.28.71,17.59,2.56,20.64,1.31C1370.78,477.21,1357.2,474.22,1356.2,472.54ZM720.62,280.43a53.1,53.1,0,0,1,3.21-5.91A24.76,24.76,0,0,1,720.62,280.43Zm89.55-143.85c-2.39,1.66-4.78,3.38-7,5.2a24.8,24.8,0,0,0,2.17-6.05c.23-1.28,5-10.85,5.27-12.12,1,.62,2.19,8,2.74,11.69A10.06,10.06,0,0,0,810.17,136.58ZM984.39,372.51c-2-3.48-1.69-11.46-3.31-14.15a23.5,23.5,0,0,0-2.37-3.42c-2.81-3.19-3-5.37-3.9-7.82a47.9,47.9,0,0,1,5.86.9c8,2,4.19,12.45,10.77,16.62l.39.25C989.25,367.55,985.27,371.51,984.39,372.51Z"/><path class="cls-1" d="M488.33,287.29c-2.95-3-8.82-7.33-12.26-10-5.17-4-10.26-3.78-13.41.57-3.26,4.5-11.28,7.92-16.15,11.34-8.56,6-9.48,10.42-16.7,17.41-2.43,2.36-5,4.64-7.42,7-4.13,4-5,12.77-9.29,16.65-4.84,4.39-23.16,24.59-27.09,27.27-7.91,5.39-7.59,10.2-13.9,16.49a165.72,165.72,0,0,1-14.85,12.39c-8.75,6.58-23.89,4.85-33.35,10.83-7.23,4.57-15.81,18.06-20.39,24.13-5.74,7.61-10.25,13.92-17.08,20.93-5.39,5.54-20.35,9.06-26,14.48-3.58,3.48-7.25,6.9-10.81,10.39A27.11,27.11,0,0,1,238,473.89c-1.22.35-23.3,5.44-23,6.28.47,1.36,23.62-1.91,25.13-2a38.89,38.89,0,0,0,14.06-3.48c4.12-2.05,9.19-3.09,13.87-4.35,10.2-2.74,31.58-20.9,32.09-24.62.14-.95,2-1.73,2.92-2.65,3.89-3.77,7.78-7.55,11.61-11.36,1.2-1.2,1.9-2.76,3.33-3.73,6.8-4.62,9.62-18.69,16.15-23.52,3.61-2.68,7.59-3.76,12.25-4.19,5.08-.46,10.26-.61,15.18-1.55a78.82,78.82,0,0,0,12.2-3.91c2-.73,3.52-2.19,5.53-2.79,4.6-1.38,6.6-4.63,8.61-7.42,2.49-3.47,4.93-6.8,8.81-9.47a18.89,18.89,0,0,0,3-2.67c5.68-6,11-12.24,17-18,8.93-8.57,26.51-45.12,35.58-53.6,2.88-2.7,8.68-14.9,11.11-17.87s5.26-3.27,7.93-.45c2.11,2.22.66,13.6,2.45,16,3.36,4.43,3.12,21.14,4,34,1.32-2.89,2.77-5.74,4.39-8.52a11.21,11.21,0,0,1-.66-1.29c-5.09-12.25-2.46-24.42,7.44-34.74C488.77,287.71,488.54,287.51,488.33,287.29Z"/></g></g></svg>