<svg width="226" height="188" viewBox="0 0 226 188" fill="none" xmlns="http://www.w3.org/2000/svg">
<path d="M30.1038 147.016C24.3438 147.016 19.9758 145.48 16.9998 142.408C14.0238 139.336 12.5358 134.872 12.5358 129.016V95.752C12.5358 94.984 12.1998 94.408 11.5278 94.024C10.9518 93.64 9.75181 93.4 7.92781 93.304H6.34381C5.76781 93.304 5.28781 92.872 4.90381 92.008C4.51981 91.048 4.32781 90.136 4.32781 89.272C4.32781 89.08 4.37581 88.84 4.47181 88.552C4.66381 88.168 4.90381 87.928 5.19181 87.832C7.39981 86.872 9.65581 85.576 11.9598 83.944C14.2638 82.216 16.4238 80.488 18.4398 78.76C20.4558 76.936 22.1358 75.4 23.4798 74.152C24.1518 73.672 24.6798 73.24 25.0638 72.856C25.5438 72.472 26.0718 72.28 26.6478 72.28C27.4158 72.28 27.9918 72.472 28.3758 72.856C28.8558 73.144 28.9998 73.768 28.8078 74.728L27.9438 82.648C27.8478 83.8 28.0878 84.568 28.6638 84.952C29.3358 85.336 30.2478 85.528 31.3998 85.528H48.3918C48.6798 85.528 48.9678 85.864 49.2558 86.536C49.5438 87.208 49.6878 87.88 49.6878 88.552C49.6878 89.8 49.4958 90.952 49.1118 92.008C48.8238 93.064 48.4398 93.592 47.9598 93.592H34.2798C32.0718 93.592 30.5358 93.832 29.6718 94.312C28.9038 94.792 28.5198 95.8 28.5198 97.336V124.984C28.5198 129.208 29.3358 132.424 30.9678 134.632C32.5998 136.744 34.9038 137.8 37.8798 137.8C40.5678 137.8 42.5838 137.56 43.9278 137.08C45.3678 136.6 46.6638 136.024 47.8158 135.352C48.1038 135.16 48.3438 135.064 48.5358 135.064C49.0158 135.064 49.3518 135.352 49.5438 135.928C49.8318 136.504 49.9758 137.128 49.9758 137.8C49.9758 138.28 49.0158 139.288 47.0958 140.824C45.2718 142.36 42.8238 143.752 39.7518 145C36.7758 146.344 33.5598 147.016 30.1038 147.016ZM56.9553 145.432C56.1873 145.432 55.5633 145.288 55.0833 145C54.6033 144.616 54.3633 144.136 54.3633 143.56C54.3633 142.792 54.6513 142.216 55.2273 141.832C55.8033 141.448 56.4753 141.16 57.2433 140.968C59.5473 140.392 61.1793 139.768 62.1393 139.096C63.1953 138.424 63.7233 137.272 63.7233 135.64V104.392C63.7233 101.32 63.2433 99.016 62.2833 97.48C61.3233 95.944 59.6913 94.984 57.3873 94.6C56.9073 94.504 56.5233 94.264 56.2353 93.88C55.9473 93.4 55.8033 92.872 55.8033 92.296C55.8033 90.952 56.3313 90.232 57.3873 90.136C61.9953 89.176 65.9793 87.88 69.3393 86.248C72.7953 84.52 75.4353 83.176 77.2593 82.216C78.6033 81.544 79.4673 81.208 79.8513 81.208C80.9073 81.208 81.4353 81.688 81.4353 82.648C81.3393 83.992 81.1473 85.864 80.8593 88.264C80.5713 90.568 80.2833 93.064 79.9953 95.752C79.8033 98.344 79.7073 100.792 79.7073 103.096V135.496C79.7073 136.936 80.2353 138.04 81.2913 138.808C82.3473 139.576 84.0273 140.296 86.3313 140.968C87.0993 141.256 87.7713 141.592 88.3473 141.976C88.9233 142.264 89.2113 142.792 89.2113 143.56C89.2113 144.712 88.3953 145.288 86.7633 145.288C84.9393 145.288 83.1633 145.24 81.4353 145.144C79.8033 145.048 78.1713 144.952 76.5393 144.856C75.0033 144.76 73.3713 144.712 71.6433 144.712C70.0113 144.712 68.4273 144.76 66.8913 144.856C65.3553 144.952 63.7713 145.048 62.1393 145.144C60.6033 145.336 58.8753 145.432 56.9553 145.432ZM71.3553 72.856C68.5713 72.856 66.2193 71.896 64.2993 69.976C62.3793 68.056 61.4193 65.752 61.4193 63.064C61.4193 60.088 62.3793 57.64 64.2993 55.72C66.2193 53.8 68.5713 52.84 71.3553 52.84C74.2353 52.84 76.6353 53.8 78.5553 55.72C80.4753 57.64 81.4353 60.088 81.4353 63.064C81.4353 65.752 80.4753 68.056 78.5553 69.976C76.6353 71.896 74.2353 72.856 71.3553 72.856ZM142.966 147.736C142.678 147.736 142.246 147.448 141.67 146.872C141.19 146.392 140.95 146.008 140.95 145.72C141.142 144.376 141.286 142.984 141.382 141.544C141.574 140.008 141.718 138.712 141.814 137.656V136.792C139.99 139.48 137.398 141.88 134.038 143.992C130.774 146.008 127.03 147.016 122.806 147.016C117.43 147.016 112.678 145.672 108.55 142.984C104.422 140.2 101.158 136.552 98.7581 132.04C96.4541 127.432 95.3021 122.488 95.3021 117.208C95.3021 110.968 96.6941 105.352 99.4781 100.36C102.358 95.272 106.342 91.288 111.43 88.408C116.518 85.432 122.422 83.944 129.142 83.944C130.774 83.944 132.406 84.088 134.038 84.376C135.766 84.568 137.254 84.856 138.502 85.24C139.654 85.528 140.278 85.672 140.374 85.672C140.854 85.672 141.094 84.856 141.094 83.224V65.08C141.094 61.432 140.614 58.888 139.654 57.448C138.694 56.008 137.158 55.096 135.046 54.712C133.99 54.424 133.462 53.704 133.462 52.552C133.462 51.496 133.942 50.824 134.902 50.536C138.646 49.672 142.15 48.712 145.414 47.656C148.774 46.504 151.51 45.448 153.622 44.488C154.582 44.104 155.254 43.864 155.638 43.768C156.118 43.576 156.406 43.48 156.502 43.48C157.462 43.48 157.942 43.96 157.942 44.92C157.942 44.92 157.894 45.496 157.798 46.648C157.702 47.8 157.558 49.384 157.366 51.4C157.27 53.32 157.174 55.528 157.078 58.024L156.646 128.152C156.646 131.416 156.886 133.768 157.366 135.208C157.846 136.648 158.662 137.368 159.814 137.368C160.294 137.368 160.918 137.368 161.686 137.368C162.454 137.272 163.798 137.128 165.718 136.936C167.158 136.84 167.878 137.32 167.878 138.376C167.878 139.144 167.59 139.912 167.014 140.68C166.534 141.352 166.054 141.688 165.574 141.688C162.31 142.072 158.998 142.696 155.638 143.56C152.278 144.424 148.87 145.528 145.414 146.872C144.742 147.16 144.214 147.352 143.83 147.448C143.542 147.64 143.254 147.736 142.966 147.736ZM129.43 137.944C131.254 137.944 133.27 137.512 135.478 136.648C137.686 135.688 139.558 134.392 141.094 132.76V102.808C141.094 100.792 140.422 98.824 139.078 96.904C137.734 94.888 135.958 93.256 133.75 92.008C131.542 90.664 129.19 89.992 126.694 89.992C124.39 89.992 122.134 90.856 119.926 92.584C117.718 94.216 115.846 96.76 114.31 100.216C112.87 103.672 112.15 108.088 112.15 113.464C112.15 117.88 112.678 121.672 113.734 124.84C114.886 127.912 116.326 130.408 118.054 132.328C119.782 134.248 121.654 135.688 123.67 136.648C125.686 137.512 127.606 137.944 129.43 137.944ZM197.739 147.016C192.459 147.016 187.803 145.672 183.771 142.984C179.739 140.296 176.571 136.6 174.267 131.896C171.963 127.096 170.811 121.672 170.811 115.624C170.811 109.768 172.155 104.44 174.843 99.64C177.627 94.744 181.323 90.856 185.931 87.976C190.539 85.096 195.579 83.656 201.051 83.656C205.083 83.656 208.683 84.52 211.851 86.248C215.019 87.88 217.515 90.184 219.339 93.16C221.259 96.04 222.219 99.304 222.219 102.952C222.219 106.408 220.731 108.136 217.755 108.136H188.523C187.179 108.136 186.171 108.52 185.499 109.288C184.923 109.96 184.635 111.256 184.635 113.176C184.635 117.208 185.499 120.856 187.227 124.12C189.051 127.384 191.451 129.976 194.427 131.896C197.403 133.816 200.811 134.776 204.651 134.776C207.435 134.776 209.979 134.248 212.283 133.192C214.683 132.04 216.939 130.504 219.051 128.584C219.435 128.296 219.771 128.056 220.059 127.864C220.347 127.576 220.635 127.432 220.923 127.432C221.883 127.432 222.363 128.008 222.363 129.16C222.363 130.504 221.787 132.136 220.635 134.056C219.483 136.264 217.803 138.376 215.595 140.392C213.483 142.408 210.891 143.992 207.819 145.144C204.747 146.392 201.387 147.016 197.739 147.016ZM188.523 102.52H198.747C201.243 102.52 203.115 102.472 204.363 102.376C205.611 102.28 206.811 102.088 207.963 101.8C208.443 101.704 208.779 101.32 208.971 100.648C209.163 99.88 209.259 99.016 209.259 98.056C209.259 95.464 208.251 93.304 206.235 91.576C204.315 89.752 201.915 88.84 199.035 88.84C197.019 88.84 195.051 89.464 193.131 90.712C191.211 91.864 189.627 93.352 188.379 95.176C187.131 97 186.555 98.872 186.651 100.792C186.651 101.944 187.275 102.52 188.523 102.52Z" fill="#373633"/>
<circle cx="71.5" cy="62.5" r="10.5" fill="#8284FF"/>
</svg>
